<svg width="343" height="76" viewBox="0 0 343 76" fill="none" xmlns="http://www.w3.org/2000/svg">
<path d="M7.32129 5.04688V6.41406H2.69336V15H0.984375V5.04688H7.32129ZM2.17383 8.86816H4.67578C5.43229 8.86816 6.07943 8.99577 6.61719 9.25098C7.15495 9.50163 7.5651 9.85482 7.84766 10.3105C8.13021 10.7663 8.27148 11.2972 8.27148 11.9033C8.27148 12.359 8.19173 12.776 8.03223 13.1543C7.87272 13.5326 7.63802 13.8607 7.32812 14.1387C7.01823 14.4121 6.63997 14.624 6.19336 14.7744C5.7513 14.9248 5.24544 15 4.67578 15H0.984375V5.04688H2.70703V13.6396H4.67578C5.10872 13.6396 5.46419 13.5599 5.74219 13.4004C6.02018 13.2363 6.22526 13.0221 6.35742 12.7578C6.49414 12.4935 6.5625 12.2041 6.5625 11.8896C6.5625 11.5843 6.49414 11.3063 6.35742 11.0557C6.22526 10.805 6.02018 10.6045 5.74219 10.4541C5.46419 10.3037 5.10872 10.2285 4.67578 10.2285H2.17383V8.86816ZM11.8988 14.1934L13.9086 7.60352H15.6723L12.7055 16.1279C12.6371 16.3102 12.5482 16.5085 12.4389 16.7227C12.3295 16.9368 12.1859 17.1396 12.0082 17.3311C11.835 17.527 11.6186 17.6842 11.3588 17.8027C11.099 17.9258 10.7846 17.9873 10.4154 17.9873C10.2696 17.9873 10.1283 17.9736 9.9916 17.9463C9.85944 17.9235 9.73411 17.8984 9.61563 17.8711L9.60879 16.6133C9.65436 16.6178 9.70905 16.6224 9.77285 16.627C9.84121 16.6315 9.8959 16.6338 9.93691 16.6338C10.2104 16.6338 10.4382 16.5996 10.6205 16.5312C10.8028 16.4674 10.9509 16.3626 11.0648 16.2168C11.1833 16.071 11.2836 15.875 11.3656 15.6289L11.8988 14.1934ZM10.7641 7.60352L12.5209 13.1406L12.8148 14.877L11.6732 15.1709L8.98672 7.60352H10.7641ZM21.3982 7.60352V8.91602H17.7889V7.60352H21.3982ZM22.6902 7.60352V15H21.0428V7.60352H22.6902ZM17.3855 7.60352H19.0125L18.8143 11.2607C18.7869 11.8031 18.7322 12.2816 18.6502 12.6963C18.5727 13.1064 18.4679 13.4596 18.3357 13.7559C18.2036 14.0475 18.0418 14.2845 17.8504 14.4668C17.659 14.6491 17.4357 14.7835 17.1805 14.8701C16.9253 14.9567 16.6382 15 16.3191 15H15.8064L15.7996 13.6465L16.0594 13.626C16.228 13.6123 16.3738 13.569 16.4969 13.4961C16.6199 13.4186 16.7247 13.3092 16.8113 13.168C16.9025 13.0267 16.9754 12.8444 17.0301 12.6211C17.0893 12.3978 17.1349 12.1335 17.1668 11.8281C17.2033 11.5228 17.2306 11.1673 17.2488 10.7617L17.3855 7.60352ZM26.2424 12.5938L29.1477 7.60352H30.7951V15H29.1477V10.0029L26.2424 15H24.5949V7.60352H26.2424V12.5938ZM37.0338 13.0039L39.235 7.60352H40.6637L37.5943 15H36.4732L33.4107 7.60352H34.8395L37.0338 13.0039ZM34.4156 7.60352V15H32.7682V7.60352H34.4156ZM39.652 15V7.60352H41.3062V15H39.652ZM48.3037 10.6934V11.9922H44.4756V10.6934H48.3037ZM44.9541 7.60352V15H43.3066V7.60352H44.9541ZM49.4932 7.60352V15H47.8457V7.60352H49.4932ZM53.0521 12.5938L55.9574 7.60352H57.6049V15H55.9574V10.0029L53.0521 15H51.4047V7.60352H53.0521V12.5938ZM66.466 7.60352V15H64.8117V7.60352H66.466ZM68.8928 7.60352V8.90234H62.426V7.60352H68.8928ZM74.1539 13.5166V9.98926C74.1539 9.72493 74.1061 9.49707 74.0104 9.30566C73.9146 9.11426 73.7688 8.96615 73.5729 8.86133C73.3814 8.75651 73.1399 8.7041 72.8482 8.7041C72.5794 8.7041 72.3469 8.74967 72.151 8.84082C71.955 8.93197 71.8023 9.05501 71.693 9.20996C71.5836 9.36491 71.5289 9.54036 71.5289 9.73633H69.8883C69.8883 9.44466 69.9589 9.16211 70.1002 8.88867C70.2415 8.61523 70.4466 8.37142 70.7154 8.15723C70.9843 7.94303 71.3056 7.77441 71.6793 7.65137C72.053 7.52832 72.4723 7.4668 72.9371 7.4668C73.4931 7.4668 73.9853 7.56022 74.4137 7.74707C74.8466 7.93392 75.1861 8.21647 75.4322 8.59473C75.6829 8.96842 75.8082 9.43783 75.8082 10.0029V13.291C75.8082 13.6283 75.831 13.9313 75.8766 14.2002C75.9267 14.4645 75.9973 14.6947 76.0885 14.8906V15H74.4C74.3225 14.8223 74.261 14.5967 74.2154 14.3232C74.1744 14.0452 74.1539 13.7764 74.1539 13.5166ZM74.3932 10.502L74.4068 11.5205H73.2242C72.9189 11.5205 72.65 11.5501 72.4176 11.6094C72.1852 11.6641 71.9915 11.7461 71.8365 11.8555C71.6816 11.9648 71.5654 12.097 71.4879 12.252C71.4104 12.4069 71.3717 12.5824 71.3717 12.7783C71.3717 12.9743 71.4173 13.1543 71.5084 13.3184C71.5995 13.4779 71.7317 13.6032 71.9049 13.6943C72.0826 13.7855 72.2968 13.8311 72.5475 13.8311C72.8847 13.8311 73.1786 13.7627 73.4293 13.626C73.6845 13.4847 73.885 13.3138 74.0309 13.1133C74.1767 12.9082 74.2542 12.7145 74.2633 12.5322L74.7965 13.2637C74.7418 13.4505 74.6484 13.651 74.5162 13.8652C74.3841 14.0794 74.2109 14.2845 73.9967 14.4805C73.787 14.6719 73.5341 14.8291 73.2379 14.9521C72.9462 15.0752 72.609 15.1367 72.2262 15.1367C71.7431 15.1367 71.3124 15.041 70.9342 14.8496C70.5559 14.6536 70.2597 14.3916 70.0455 14.0635C69.8313 13.7308 69.7242 13.3548 69.7242 12.9355C69.7242 12.5436 69.7971 12.1973 69.943 11.8965C70.0934 11.5911 70.3121 11.3359 70.5992 11.1309C70.8909 10.9258 71.2464 10.7708 71.6656 10.666C72.0849 10.5566 72.5634 10.502 73.1012 10.502H74.3932ZM82.6826 10.6934V11.9922H78.8545V10.6934H82.6826ZM79.333 7.60352V15H77.6855V7.60352H79.333ZM83.8721 7.60352V15H82.2246V7.60352H83.8721ZM90.6986 7.60352V8.91602H87.0893V7.60352H90.6986ZM91.9906 7.60352V15H90.3432V7.60352H91.9906ZM86.6859 7.60352H88.3129L88.1146 11.2607C88.0873 11.8031 88.0326 12.2816 87.9506 12.6963C87.8731 13.1064 87.7683 13.4596 87.6361 13.7559C87.504 14.0475 87.3422 14.2845 87.1508 14.4668C86.9594 14.6491 86.7361 14.7835 86.4809 14.8701C86.2256 14.9567 85.9385 15 85.6195 15H85.1068L85.1 13.6465L85.3598 13.626C85.5284 13.6123 85.6742 13.569 85.7973 13.4961C85.9203 13.4186 86.0251 13.3092 86.1117 13.168C86.2029 13.0267 86.2758 12.8444 86.3305 12.6211C86.3897 12.3978 86.4353 12.1335 86.4672 11.8281C86.5036 11.5228 86.531 11.1673 86.5492 10.7617L86.6859 7.60352ZM98.0105 13.5166V9.98926C98.0105 9.72493 97.9627 9.49707 97.867 9.30566C97.7713 9.11426 97.6255 8.96615 97.4295 8.86133C97.2381 8.75651 96.9965 8.7041 96.7049 8.7041C96.436 8.7041 96.2036 8.74967 96.0076 8.84082C95.8117 8.93197 95.659 9.05501 95.5496 9.20996C95.4402 9.36491 95.3855 9.54036 95.3855 9.73633H93.7449C93.7449 9.44466 93.8156 9.16211 93.9568 8.88867C94.0981 8.61523 94.3032 8.37142 94.5721 8.15723C94.8409 7.94303 95.1622 7.77441 95.5359 7.65137C95.9096 7.52832 96.3289 7.4668 96.7937 7.4668C97.3497 7.4668 97.8419 7.56022 98.2703 7.74707C98.7033 7.93392 99.0428 8.21647 99.2889 8.59473C99.5395 8.96842 99.6648 9.43783 99.6648 10.0029V13.291C99.6648 13.6283 99.6876 13.9313 99.7332 14.2002C99.7833 14.4645 99.854 14.6947 99.9451 14.8906V15H98.2566C98.1792 14.8223 98.1176 14.5967 98.0721 14.3232C98.0311 14.0452 98.0105 13.7764 98.0105 13.5166ZM98.2498 10.502L98.2635 11.5205H97.0809C96.7755 11.5205 96.5066 11.5501 96.2742 11.6094C96.0418 11.6641 95.8481 11.7461 95.6932 11.8555C95.5382 11.9648 95.422 12.097 95.3445 12.252C95.2671 12.4069 95.2283 12.5824 95.2283 12.7783C95.2283 12.9743 95.2739 13.1543 95.365 13.3184C95.4562 13.4779 95.5883 13.6032 95.7615 13.6943C95.9393 13.7855 96.1534 13.8311 96.4041 13.8311C96.7413 13.8311 97.0353 13.7627 97.2859 13.626C97.5411 13.4847 97.7417 13.3138 97.8875 13.1133C98.0333 12.9082 98.1108 12.7145 98.1199 12.5322L98.6531 13.2637C98.5984 13.4505 98.505 13.651 98.3728 13.8652C98.2407 14.0794 98.0675 14.2845 97.8533 14.4805C97.6437 14.6719 97.3908 14.8291 97.0945 14.9521C96.8029 15.0752 96.4656 15.1367 96.0828 15.1367C95.5997 15.1367 95.1691 15.041 94.7908 14.8496C94.4126 14.6536 94.1163 14.3916 93.9021 14.0635C93.688 13.7308 93.5809 13.3548 93.5809 12.9355C93.5809 12.5436 93.6538 12.1973 93.7996 11.8965C93.95 11.5911 94.1687 11.3359 94.4559 11.1309C94.7475 10.9258 95.103 10.7708 95.5223 10.666C95.9415 10.5566 96.42 10.502 96.9578 10.502H98.2498ZM106.539 10.6934V11.9922H102.711V10.6934H106.539ZM103.19 7.60352V15H101.542V7.60352H103.19ZM107.729 7.60352V15H106.081V7.60352H107.729ZM114.507 7.60352V8.91602H111.281V15H109.633V7.60352H114.507Z" fill="#242424"/>
<rect x="0.5" y="26.5" width="342" height="49" rx="15.5" fill="white"/>
<rect x="0.5" y="26.5" width="342" height="49" rx="15.5" stroke="#EDEDED"/>
<path d="M16.6074 48.0381H18.2549C18.8291 48.0381 19.36 48.1361 19.8477 48.332C20.3398 48.5234 20.7682 48.7969 21.1328 49.1523C21.502 49.5078 21.7891 49.9316 21.9941 50.4238C22.1992 50.9115 22.3018 51.4515 22.3018 52.0439C22.3018 52.6364 22.1992 53.1787 21.9941 53.6709C21.7891 54.1631 21.502 54.5892 21.1328 54.9492C20.7682 55.3047 20.3398 55.5804 19.8477 55.7764C19.36 55.9678 18.8291 56.0635 18.2549 56.0635H16.6074C16.0332 56.0635 15.5023 55.9678 15.0146 55.7764C14.527 55.5804 14.0986 55.3047 13.7295 54.9492C13.3649 54.5938 13.0801 54.1722 12.875 53.6846C12.6745 53.1924 12.5742 52.6501 12.5742 52.0576C12.5742 51.4652 12.6745 50.9251 12.875 50.4375C13.0801 49.9453 13.3649 49.5215 13.7295 49.166C14.0986 48.806 14.527 48.528 15.0146 48.332C15.5023 48.1361 16.0332 48.0381 16.6074 48.0381ZM16.6074 49.0771C16.0104 49.0771 15.5046 49.2025 15.0898 49.4531C14.6751 49.6992 14.3607 50.0456 14.1465 50.4922C13.9323 50.9388 13.8252 51.4606 13.8252 52.0576C13.8252 52.5088 13.8844 52.9167 14.0029 53.2812C14.126 53.6458 14.306 53.958 14.543 54.2178C14.7799 54.4775 15.0716 54.6781 15.418 54.8193C15.7643 54.9606 16.1608 55.0312 16.6074 55.0312H18.2686C18.861 55.0312 19.3623 54.9082 19.7725 54.6621C20.1872 54.4115 20.5016 54.0628 20.7158 53.6162C20.9346 53.165 21.0439 52.641 21.0439 52.0439C21.0439 51.5973 20.9824 51.1917 20.8594 50.8271C20.7363 50.4626 20.5563 50.1504 20.3193 49.8906C20.0869 49.6309 19.7975 49.4303 19.4512 49.2891C19.1094 49.1478 18.7152 49.0771 18.2686 49.0771H16.6074ZM18.0703 46.6367V57.4102H16.8057V46.6367H18.0703ZM28.3896 55.7354V51.9277C28.3896 51.6361 28.3304 51.3831 28.2119 51.1689C28.098 50.9502 27.9248 50.7816 27.6924 50.6631C27.46 50.5446 27.1729 50.4854 26.8311 50.4854C26.512 50.4854 26.2318 50.54 25.9902 50.6494C25.7533 50.7588 25.5664 50.9023 25.4297 51.0801C25.2975 51.2578 25.2314 51.4492 25.2314 51.6543H23.9668C23.9668 51.39 24.0352 51.1279 24.1719 50.8682C24.3086 50.6084 24.5046 50.3737 24.7598 50.1641C25.0195 49.9499 25.3294 49.7812 25.6895 49.6582C26.054 49.5306 26.4596 49.4668 26.9062 49.4668C27.444 49.4668 27.918 49.5579 28.3281 49.7402C28.7428 49.9225 29.0664 50.1982 29.2988 50.5674C29.5358 50.932 29.6543 51.39 29.6543 51.9414V55.3867C29.6543 55.6328 29.6748 55.8949 29.7158 56.1729C29.7614 56.4508 29.8275 56.6901 29.9141 56.8906V57H28.5947C28.5309 56.8542 28.4808 56.6605 28.4443 56.4189C28.4079 56.1729 28.3896 55.945 28.3896 55.7354ZM28.6084 52.5156L28.6221 53.4043H27.3438C26.9837 53.4043 26.6624 53.4339 26.3799 53.4932C26.0973 53.5479 25.8604 53.6322 25.6689 53.7461C25.4775 53.86 25.3317 54.0036 25.2314 54.1768C25.1312 54.3454 25.0811 54.5436 25.0811 54.7715C25.0811 55.0039 25.1335 55.2158 25.2383 55.4072C25.3431 55.5986 25.5003 55.7513 25.71 55.8652C25.9242 55.9746 26.1862 56.0293 26.4961 56.0293C26.8835 56.0293 27.2253 55.9473 27.5215 55.7832C27.8177 55.6191 28.0524 55.4186 28.2256 55.1816C28.4033 54.9447 28.499 54.7145 28.5127 54.4912L29.0527 55.0996C29.0208 55.291 28.9342 55.5029 28.793 55.7354C28.6517 55.9678 28.4626 56.1911 28.2256 56.4053C27.9932 56.6149 27.7152 56.7904 27.3916 56.9316C27.0726 57.0684 26.7126 57.1367 26.3115 57.1367C25.8102 57.1367 25.3704 57.0387 24.9922 56.8428C24.6185 56.6468 24.3268 56.3848 24.1172 56.0566C23.9121 55.724 23.8096 55.3525 23.8096 54.9424C23.8096 54.5459 23.887 54.1973 24.042 53.8965C24.1969 53.5911 24.4202 53.3382 24.7119 53.1377C25.0036 52.9326 25.3545 52.7777 25.7646 52.6729C26.1748 52.568 26.6328 52.5156 27.1387 52.5156H28.6084ZM36.9111 52.8096V53.835H33.001V52.8096H36.9111ZM33.2676 49.6035V57H32.0029V49.6035H33.2676ZM37.9365 49.6035V57H36.665V49.6035H37.9365ZM43.2383 49.6035V57H41.9668V49.6035H43.2383ZM45.7197 49.6035V50.6289H39.5332V49.6035H45.7197ZM51.4658 55.7354V51.9277C51.4658 51.6361 51.4066 51.3831 51.2881 51.1689C51.1742 50.9502 51.001 50.7816 50.7686 50.6631C50.5361 50.5446 50.249 50.4854 49.9072 50.4854C49.5882 50.4854 49.3079 50.54 49.0664 50.6494C48.8294 50.7588 48.6426 50.9023 48.5059 51.0801C48.3737 51.2578 48.3076 51.4492 48.3076 51.6543H47.043C47.043 51.39 47.1113 51.1279 47.248 50.8682C47.3848 50.6084 47.5807 50.3737 47.8359 50.1641C48.0957 49.9499 48.4056 49.7812 48.7656 49.6582C49.1302 49.5306 49.5358 49.4668 49.9824 49.4668C50.5202 49.4668 50.9941 49.5579 51.4043 49.7402C51.819 49.9225 52.1426 50.1982 52.375 50.5674C52.612 50.932 52.7305 51.39 52.7305 51.9414V55.3867C52.7305 55.6328 52.751 55.8949 52.792 56.1729C52.8376 56.4508 52.9036 56.6901 52.9902 56.8906V57H51.6709C51.6071 56.8542 51.557 56.6605 51.5205 56.4189C51.484 56.1729 51.4658 55.945 51.4658 55.7354ZM51.6846 52.5156L51.6982 53.4043H50.4199C50.0599 53.4043 49.7386 53.4339 49.4561 53.4932C49.1735 53.5479 48.9365 53.6322 48.7451 53.7461C48.5537 53.86 48.4079 54.0036 48.3076 54.1768C48.2074 54.3454 48.1572 54.5436 48.1572 54.7715C48.1572 55.0039 48.2096 55.2158 48.3145 55.4072C48.4193 55.5986 48.5765 55.7513 48.7861 55.8652C49.0003 55.9746 49.2624 56.0293 49.5723 56.0293C49.9596 56.0293 50.3014 55.9473 50.5977 55.7832C50.8939 55.6191 51.1286 55.4186 51.3018 55.1816C51.4795 54.9447 51.5752 54.7145 51.5889 54.4912L52.1289 55.0996C52.097 55.291 52.0104 55.5029 51.8691 55.7354C51.7279 55.9678 51.5387 56.1911 51.3018 56.4053C51.0693 56.6149 50.7913 56.7904 50.4678 56.9316C50.1488 57.0684 49.7887 57.1367 49.3877 57.1367C48.8864 57.1367 48.4466 57.0387 48.0684 56.8428C47.6947 56.6468 47.403 56.3848 47.1934 56.0566C46.9883 55.724 46.8857 55.3525 46.8857 54.9424C46.8857 54.5459 46.9632 54.1973 47.1182 53.8965C47.2731 53.5911 47.4964 53.3382 47.7881 53.1377C48.0798 52.9326 48.4307 52.7777 48.8408 52.6729C49.251 52.568 49.709 52.5156 50.2148 52.5156H51.6846ZM57.9297 56.0977C58.2305 56.0977 58.5085 56.0361 58.7637 55.9131C59.0189 55.79 59.2285 55.6214 59.3926 55.4072C59.5566 55.1885 59.6501 54.9401 59.6729 54.6621H60.876C60.8532 55.0996 60.7051 55.5075 60.4316 55.8857C60.1628 56.2594 59.8096 56.5625 59.3721 56.7949C58.9346 57.0228 58.4538 57.1367 57.9297 57.1367C57.3737 57.1367 56.8883 57.0387 56.4736 56.8428C56.0635 56.6468 55.7217 56.3779 55.4482 56.0361C55.1794 55.6943 54.9766 55.3024 54.8398 54.8604C54.7077 54.4137 54.6416 53.9421 54.6416 53.4453V53.1582C54.6416 52.6615 54.7077 52.1921 54.8398 51.75C54.9766 51.3034 55.1794 50.9092 55.4482 50.5674C55.7217 50.2256 56.0635 49.9567 56.4736 49.7607C56.8883 49.5648 57.3737 49.4668 57.9297 49.4668C58.5085 49.4668 59.0143 49.5853 59.4473 49.8223C59.8802 50.0547 60.2197 50.3737 60.4658 50.7793C60.7165 51.1803 60.8532 51.6361 60.876 52.1465H59.6729C59.6501 51.8411 59.5635 51.5654 59.4131 51.3193C59.2673 51.0732 59.0667 50.8773 58.8115 50.7314C58.5609 50.5811 58.2669 50.5059 57.9297 50.5059C57.5423 50.5059 57.2165 50.5833 56.9521 50.7383C56.6924 50.8887 56.485 51.0938 56.3301 51.3535C56.1797 51.6087 56.0703 51.8936 56.002 52.208C55.9382 52.5179 55.9062 52.8346 55.9062 53.1582V53.4453C55.9062 53.7689 55.9382 54.0879 56.002 54.4023C56.0658 54.7168 56.1729 55.0016 56.3232 55.2568C56.4782 55.512 56.6855 55.7171 56.9453 55.8721C57.2096 56.0225 57.5378 56.0977 57.9297 56.0977ZM65.5625 49.6035V57H64.291V49.6035H65.5625ZM68.0439 49.6035V50.6289H61.8574V49.6035H68.0439ZM70.9053 54.9971L74.3164 49.6035H75.5879V57H74.3164V51.6064L70.9053 57H69.6475V49.6035H70.9053V54.9971ZM79.2422 49.6035V57H77.9775V49.6035H79.2422ZM84.0957 49.6035L80.5889 53.8418H78.8184L78.627 52.7344H80.0762L82.5576 49.6035H84.0957ZM82.7354 57L80.0146 53.6504L80.8281 52.7344L84.3418 57H82.7354ZM90.0537 55.7354V51.9277C90.0537 51.6361 89.9945 51.3831 89.876 51.1689C89.762 50.9502 89.5889 50.7816 89.3564 50.6631C89.124 50.5446 88.8369 50.4854 88.4951 50.4854C88.1761 50.4854 87.8958 50.54 87.6543 50.6494C87.4173 50.7588 87.2305 50.9023 87.0938 51.0801C86.9616 51.2578 86.8955 51.4492 86.8955 51.6543H85.6309C85.6309 51.39 85.6992 51.1279 85.8359 50.8682C85.9727 50.6084 86.1686 50.3737 86.4238 50.1641C86.6836 49.9499 86.9935 49.7812 87.3535 49.6582C87.7181 49.5306 88.1237 49.4668 88.5703 49.4668C89.1081 49.4668 89.582 49.5579 89.9922 49.7402C90.4069 49.9225 90.7305 50.1982 90.9629 50.5674C91.1999 50.932 91.3184 51.39 91.3184 51.9414V55.3867C91.3184 55.6328 91.3389 55.8949 91.3799 56.1729C91.4255 56.4508 91.4915 56.6901 91.5781 56.8906V57H90.2588C90.195 56.8542 90.1449 56.6605 90.1084 56.4189C90.0719 56.1729 90.0537 55.945 90.0537 55.7354ZM90.2725 52.5156L90.2861 53.4043H89.0078C88.6478 53.4043 88.3265 53.4339 88.0439 53.4932C87.7614 53.5479 87.5244 53.6322 87.333 53.7461C87.1416 53.86 86.9958 54.0036 86.8955 54.1768C86.7952 54.3454 86.7451 54.5436 86.7451 54.7715C86.7451 55.0039 86.7975 55.2158 86.9023 55.4072C87.0072 55.5986 87.1644 55.7513 87.374 55.8652C87.5882 55.9746 87.8503 56.0293 88.1602 56.0293C88.5475 56.0293 88.8893 55.9473 89.1855 55.7832C89.4818 55.6191 89.7165 55.4186 89.8896 55.1816C90.0674 54.9447 90.1631 54.7145 90.1768 54.4912L90.7168 55.0996C90.6849 55.291 90.5983 55.5029 90.457 55.7354C90.3158 55.9678 90.1266 56.1911 89.8896 56.4053C89.6572 56.6149 89.3792 56.7904 89.0557 56.9316C88.7367 57.0684 88.3766 57.1367 87.9756 57.1367C87.4743 57.1367 87.0345 57.0387 86.6562 56.8428C86.2826 56.6468 85.9909 56.3848 85.7812 56.0566C85.5762 55.724 85.4736 55.3525 85.4736 54.9424C85.4736 54.5459 85.5511 54.1973 85.7061 53.8965C85.861 53.5911 86.0843 53.3382 86.376 53.1377C86.6676 52.9326 87.0186 52.7777 87.4287 52.6729C87.8389 52.568 88.2969 52.5156 88.8027 52.5156H90.2725Z" fill="#9A9A9A"/>
<path d="M321 53.0833L325.167 48.9166H316.833L321 53.0833Z" fill="#242424"/>
</svg>
