<svg width="343" height="76" viewBox="0 0 343 76" fill="none" xmlns="http://www.w3.org/2000/svg">
<path d="M8.94824 9.75V10.2969C8.94824 11.0488 8.85026 11.7233 8.6543 12.3203C8.45833 12.9173 8.17806 13.4255 7.81348 13.8447C7.45345 14.264 7.02051 14.5853 6.51465 14.8086C6.00879 15.0273 5.44824 15.1367 4.83301 15.1367C4.22233 15.1367 3.66406 15.0273 3.1582 14.8086C2.6569 14.5853 2.22168 14.264 1.85254 13.8447C1.4834 13.4255 1.19629 12.9173 0.991211 12.3203C0.79069 11.7233 0.69043 11.0488 0.69043 10.2969V9.75C0.69043 8.99805 0.79069 8.32585 0.991211 7.7334C1.19173 7.13639 1.47428 6.62826 1.83887 6.20898C2.20801 5.78516 2.64323 5.46387 3.14453 5.24512C3.65039 5.02181 4.20866 4.91016 4.81934 4.91016C5.43457 4.91016 5.99512 5.02181 6.50098 5.24512C7.00684 5.46387 7.44206 5.78516 7.80664 6.20898C8.17122 6.62826 8.4515 7.13639 8.64746 7.7334C8.84798 8.32585 8.94824 8.99805 8.94824 9.75ZM7.23242 10.2969V9.73633C7.23242 9.18034 7.17773 8.69043 7.06836 8.2666C6.96354 7.83822 6.80632 7.48047 6.59668 7.19336C6.3916 6.90169 6.13867 6.68294 5.83789 6.53711C5.53711 6.38672 5.19759 6.31152 4.81934 6.31152C4.44108 6.31152 4.10384 6.38672 3.80762 6.53711C3.51139 6.68294 3.25846 6.90169 3.04883 7.19336C2.84375 7.48047 2.68652 7.83822 2.57715 8.2666C2.46777 8.69043 2.41309 9.18034 2.41309 9.73633V10.2969C2.41309 10.8529 2.46777 11.3451 2.57715 11.7734C2.68652 12.2018 2.84603 12.5641 3.05566 12.8604C3.26986 13.152 3.52507 13.373 3.82129 13.5234C4.11751 13.6693 4.45475 13.7422 4.83301 13.7422C5.21582 13.7422 5.55534 13.6693 5.85156 13.5234C6.14779 13.373 6.39844 13.152 6.60352 12.8604C6.80859 12.5641 6.96354 12.2018 7.06836 11.7734C7.17773 11.3451 7.23242 10.8529 7.23242 10.2969ZM15.2416 4.36328H16.5746C16.5746 4.76888 16.5176 5.10384 16.4037 5.36816C16.2943 5.62793 16.1303 5.84212 15.9115 6.01074C15.6973 6.1748 15.4307 6.30697 15.1117 6.40723C14.7973 6.50749 14.4327 6.59863 14.018 6.68066C13.6352 6.7627 13.2888 6.89258 12.9789 7.07031C12.6736 7.24349 12.4161 7.4873 12.2064 7.80176C12.0014 8.11165 11.8533 8.51042 11.7621 8.99805C11.671 9.48568 11.6436 10.0804 11.6801 10.7822V11.2471L10.3744 11.3633V10.8984C10.3744 10.028 10.4542 9.26921 10.6137 8.62207C10.7732 7.97493 10.9988 7.43034 11.2904 6.98828C11.5867 6.54167 11.9376 6.1862 12.3432 5.92188C12.7533 5.65755 13.209 5.47526 13.7104 5.375C14.0521 5.30208 14.337 5.22917 14.5648 5.15625C14.7927 5.07878 14.9613 4.98079 15.0707 4.8623C15.1846 4.73926 15.2416 4.57292 15.2416 4.36328ZM14.0863 8.02051C14.5785 8.02051 15.016 8.1071 15.3988 8.28027C15.7816 8.44889 16.1052 8.68587 16.3695 8.99121C16.6339 9.29655 16.8344 9.65658 16.9711 10.0713C17.1124 10.486 17.183 10.9372 17.183 11.4248V11.5752C17.183 12.0856 17.1078 12.5573 16.9574 12.9902C16.807 13.4232 16.586 13.8014 16.2943 14.125C16.0027 14.444 15.6449 14.6947 15.2211 14.877C14.8018 15.0547 14.321 15.1436 13.7787 15.1436C13.241 15.1436 12.7602 15.0501 12.3363 14.8633C11.9125 14.6764 11.5548 14.4167 11.2631 14.084C10.9714 13.7467 10.7504 13.3525 10.6 12.9014C10.4496 12.4502 10.3744 11.958 10.3744 11.4248V11.2744C10.3699 11.1787 10.3949 11.0853 10.4496 10.9941C10.5089 10.903 10.5795 10.805 10.6615 10.7002C10.7436 10.5954 10.8165 10.4746 10.8803 10.3379C11.1081 9.8776 11.377 9.47428 11.6869 9.12793C11.9968 8.78158 12.35 8.51042 12.7465 8.31445C13.1475 8.11849 13.5941 8.02051 14.0863 8.02051ZM13.765 9.32617C13.3549 9.32617 13.0199 9.42415 12.7602 9.62012C12.5049 9.81152 12.3158 10.0667 12.1928 10.3857C12.0743 10.7048 12.015 11.0511 12.015 11.4248V11.5752C12.015 11.8805 12.0492 12.1699 12.1176 12.4434C12.1859 12.7168 12.2885 12.9583 12.4252 13.168C12.5665 13.373 12.7488 13.5348 12.9721 13.6533C13.1999 13.7718 13.4688 13.8311 13.7787 13.8311C14.0932 13.8311 14.3598 13.7718 14.5785 13.6533C14.8018 13.5348 14.9818 13.373 15.1186 13.168C15.2598 12.9583 15.3624 12.7168 15.4262 12.4434C15.4945 12.1699 15.5287 11.8805 15.5287 11.5752V11.4248C15.5287 11.1423 15.4945 10.8757 15.4262 10.625C15.3624 10.3743 15.2598 10.1533 15.1186 9.96191C14.9773 9.76595 14.795 9.611 14.5717 9.49707C14.3484 9.38314 14.0795 9.32617 13.765 9.32617ZM20.7215 14.1934L22.7313 7.60352H24.4949L21.5281 16.1279C21.4598 16.3102 21.3709 16.5085 21.2615 16.7227C21.1521 16.9368 21.0086 17.1396 20.8309 17.3311C20.6577 17.527 20.4412 17.6842 20.1814 17.8027C19.9217 17.9258 19.6072 17.9873 19.2381 17.9873C19.0923 17.9873 18.951 17.9736 18.8143 17.9463C18.6821 17.9235 18.5568 17.8984 18.4383 17.8711L18.4314 16.6133C18.477 16.6178 18.5317 16.6224 18.5955 16.627C18.6639 16.6315 18.7186 16.6338 18.7596 16.6338C19.033 16.6338 19.2609 16.5996 19.4432 16.5312C19.6255 16.4674 19.7736 16.3626 19.8875 16.2168C20.006 16.071 20.1063 15.875 20.1883 15.6289L20.7215 14.1934ZM19.5867 7.60352L21.3436 13.1406L21.6375 14.877L20.4959 15.1709L17.8094 7.60352H19.5867ZM30.59 10.6934V11.9922H26.7619V10.6934H30.59ZM27.2404 7.60352V15H25.593V7.60352H27.2404ZM31.7795 7.60352V15H30.132V7.60352H31.7795ZM37.8063 13.5166V9.98926C37.8063 9.72493 37.7584 9.49707 37.6627 9.30566C37.567 9.11426 37.4212 8.96615 37.2252 8.86133C37.0338 8.75651 36.7923 8.7041 36.5006 8.7041C36.2317 8.7041 35.9993 8.74967 35.8033 8.84082C35.6074 8.93197 35.4547 9.05501 35.3453 9.20996C35.2359 9.36491 35.1813 9.54036 35.1813 9.73633H33.5406C33.5406 9.44466 33.6113 9.16211 33.7525 8.88867C33.8938 8.61523 34.0989 8.37142 34.3678 8.15723C34.6367 7.94303 34.9579 7.77441 35.3316 7.65137C35.7053 7.52832 36.1246 7.4668 36.5895 7.4668C37.1454 7.4668 37.6376 7.56022 38.066 7.74707C38.499 7.93392 38.8385 8.21647 39.0846 8.59473C39.3352 8.96842 39.4605 9.43783 39.4605 10.0029V13.291C39.4605 13.6283 39.4833 13.9313 39.5289 14.2002C39.579 14.4645 39.6497 14.6947 39.7408 14.8906V15H38.0523C37.9749 14.8223 37.9133 14.5967 37.8678 14.3232C37.8268 14.0452 37.8063 13.7764 37.8063 13.5166ZM38.0455 10.502L38.0592 11.5205H36.8766C36.5712 11.5205 36.3023 11.5501 36.0699 11.6094C35.8375 11.6641 35.6438 11.7461 35.4889 11.8555C35.3339 11.9648 35.2177 12.097 35.1402 12.252C35.0628 12.4069 35.024 12.5824 35.024 12.7783C35.024 12.9743 35.0696 13.1543 35.1607 13.3184C35.2519 13.4779 35.3841 13.6032 35.5572 13.6943C35.735 13.7855 35.9492 13.8311 36.1998 13.8311C36.537 13.8311 36.831 13.7627 37.0816 13.626C37.3369 13.4847 37.5374 13.3138 37.6832 13.1133C37.829 12.9082 37.9065 12.7145 37.9156 12.5322L38.4488 13.2637C38.3941 13.4505 38.3007 13.651 38.1686 13.8652C38.0364 14.0794 37.8632 14.2845 37.649 14.4805C37.4394 14.6719 37.1865 14.8291 36.8902 14.9521C36.5986 15.0752 36.2613 15.1367 35.8785 15.1367C35.3954 15.1367 34.9648 15.041 34.5865 14.8496C34.2083 14.6536 33.912 14.3916 33.6979 14.0635C33.4837 13.7308 33.3766 13.3548 33.3766 12.9355C33.3766 12.5436 33.4495 12.1973 33.5953 11.8965C33.7457 11.5911 33.9645 11.3359 34.2516 11.1309C34.5432 10.9258 34.8987 10.7708 35.318 10.666C35.7372 10.5566 36.2158 10.502 36.7535 10.502H38.0455ZM46.2094 7.60352H47.8568L47.7748 10.208C47.752 10.9645 47.6654 11.6139 47.515 12.1562C47.3646 12.6986 47.1687 13.1566 46.9271 13.5303C46.6856 13.8994 46.4122 14.2025 46.1068 14.4395C45.8061 14.6764 45.4893 14.8633 45.1566 15H44.6713V13.7012L44.9037 13.6875C45.0997 13.4779 45.2683 13.2682 45.4096 13.0586C45.5554 12.8444 45.6784 12.6097 45.7787 12.3545C45.879 12.0947 45.9564 11.7917 46.0111 11.4453C46.0704 11.099 46.1091 10.6865 46.1273 10.208L46.2094 7.60352ZM46.6469 7.60352H51.3363V15H49.6957V8.99805H46.6469V7.60352ZM44.2953 13.6875H52.348V17.2012H50.7006V15H45.9633V17.2012H44.2885L44.2953 13.6875ZM57.7938 13.5166V9.98926C57.7938 9.72493 57.7459 9.49707 57.6502 9.30566C57.5545 9.11426 57.4087 8.96615 57.2127 8.86133C57.0213 8.75651 56.7798 8.7041 56.4881 8.7041C56.2192 8.7041 55.9868 8.74967 55.7908 8.84082C55.5949 8.93197 55.4422 9.05501 55.3328 9.20996C55.2234 9.36491 55.1688 9.54036 55.1688 9.73633H53.5281C53.5281 9.44466 53.5988 9.16211 53.74 8.88867C53.8813 8.61523 54.0864 8.37142 54.3553 8.15723C54.6242 7.94303 54.9454 7.77441 55.3191 7.65137C55.6928 7.52832 56.1121 7.4668 56.577 7.4668C57.1329 7.4668 57.6251 7.56022 58.0535 7.74707C58.4865 7.93392 58.826 8.21647 59.0721 8.59473C59.3227 8.96842 59.448 9.43783 59.448 10.0029V13.291C59.448 13.6283 59.4708 13.9313 59.5164 14.2002C59.5665 14.4645 59.6372 14.6947 59.7283 14.8906V15H58.0398C57.9624 14.8223 57.9008 14.5967 57.8553 14.3232C57.8143 14.0452 57.7938 13.7764 57.7938 13.5166ZM58.033 10.502L58.0467 11.5205H56.8641C56.5587 11.5205 56.2898 11.5501 56.0574 11.6094C55.825 11.6641 55.6313 11.7461 55.4764 11.8555C55.3214 11.9648 55.2052 12.097 55.1277 12.252C55.0503 12.4069 55.0115 12.5824 55.0115 12.7783C55.0115 12.9743 55.0571 13.1543 55.1482 13.3184C55.2394 13.4779 55.3716 13.6032 55.5447 13.6943C55.7225 13.7855 55.9367 13.8311 56.1873 13.8311C56.5245 13.8311 56.8185 13.7627 57.0691 13.626C57.3243 13.4847 57.5249 13.3138 57.6707 13.1133C57.8165 12.9082 57.894 12.7145 57.9031 12.5322L58.4363 13.2637C58.3816 13.4505 58.2882 13.651 58.1561 13.8652C58.0239 14.0794 57.8507 14.2845 57.6365 14.4805C57.4269 14.6719 57.174 14.8291 56.8777 14.9521C56.5861 15.0752 56.2488 15.1367 55.866 15.1367C55.3829 15.1367 54.9523 15.041 54.574 14.8496C54.1958 14.6536 53.8995 14.3916 53.6854 14.0635C53.4712 13.7308 53.3641 13.3548 53.3641 12.9355C53.3641 12.5436 53.437 12.1973 53.5828 11.8965C53.7332 11.5911 53.952 11.3359 54.2391 11.1309C54.5307 10.9258 54.8862 10.7708 55.3055 10.666C55.7247 10.5566 56.2033 10.502 56.741 10.502H58.033ZM64.8664 11.835H62.5012L62.4875 10.6729H64.4289C64.7479 10.6729 65.01 10.641 65.215 10.5771C65.4247 10.5133 65.5796 10.4176 65.6799 10.29C65.7801 10.1579 65.8303 9.99837 65.8303 9.81152C65.8303 9.65658 65.8007 9.52214 65.7414 9.4082C65.6822 9.28971 65.591 9.19401 65.468 9.12109C65.3495 9.04362 65.1991 8.98893 65.0168 8.95703C64.8391 8.92057 64.6317 8.90234 64.3947 8.90234H63.048V15H61.4006V7.60352H64.3947C64.8687 7.60352 65.2948 7.64453 65.673 7.72656C66.0559 7.80859 66.3817 7.93392 66.6506 8.10254C66.9195 8.27116 67.1245 8.48535 67.2658 8.74512C67.4117 9.00033 67.4846 9.30111 67.4846 9.64746C67.4846 9.87533 67.4344 10.0895 67.3342 10.29C67.2385 10.4906 67.0949 10.6683 66.9035 10.8232C66.7121 10.9782 66.4774 11.1058 66.1994 11.2061C65.9214 11.3018 65.6024 11.361 65.2424 11.3838L64.8664 11.835ZM64.8664 15H62.0227L62.6789 13.7012H64.8664C65.1581 13.7012 65.3996 13.6647 65.591 13.5918C65.7824 13.5189 65.9237 13.4141 66.0148 13.2773C66.1105 13.1361 66.1584 12.9697 66.1584 12.7783C66.1584 12.5824 66.1128 12.4137 66.0217 12.2725C65.9305 12.1312 65.7893 12.0241 65.5979 11.9512C65.411 11.8737 65.1672 11.835 64.8664 11.835H62.9865L63.0002 10.6729H65.2355L65.7072 11.124C66.1766 11.1559 66.5663 11.2562 66.8762 11.4248C67.1861 11.5934 67.4185 11.8053 67.5734 12.0605C67.7284 12.3158 67.8059 12.5938 67.8059 12.8945C67.8059 13.2409 67.7398 13.5462 67.6076 13.8105C67.48 14.0749 67.2886 14.2959 67.0334 14.4736C66.7827 14.6468 66.4751 14.779 66.1105 14.8701C65.746 14.9567 65.3312 15 64.8664 15ZM69.0133 11.3838V11.2266C69.0133 10.6934 69.0908 10.1989 69.2457 9.74316C69.4007 9.28288 69.624 8.88411 69.9156 8.54688C70.2119 8.20508 70.5719 7.94076 70.9957 7.75391C71.4241 7.5625 71.9072 7.4668 72.4449 7.4668C72.9872 7.4668 73.4703 7.5625 73.8941 7.75391C74.3225 7.94076 74.6848 8.20508 74.9811 8.54688C75.2773 8.88411 75.5029 9.28288 75.6578 9.74316C75.8128 10.1989 75.8902 10.6934 75.8902 11.2266V11.3838C75.8902 11.917 75.8128 12.4115 75.6578 12.8672C75.5029 13.3229 75.2773 13.7217 74.9811 14.0635C74.6848 14.4007 74.3248 14.665 73.901 14.8564C73.4771 15.0433 72.9964 15.1367 72.4586 15.1367C71.9163 15.1367 71.4309 15.0433 71.0025 14.8564C70.5787 14.665 70.2187 14.4007 69.9225 14.0635C69.6262 13.7217 69.4007 13.3229 69.2457 12.8672C69.0908 12.4115 69.0133 11.917 69.0133 11.3838ZM70.6607 11.2266V11.3838C70.6607 11.7165 70.6949 12.0309 70.7633 12.3271C70.8316 12.6234 70.9387 12.8831 71.0846 13.1064C71.2304 13.3298 71.4173 13.5052 71.6451 13.6328C71.873 13.7604 72.1441 13.8242 72.4586 13.8242C72.7639 13.8242 73.0283 13.7604 73.2516 13.6328C73.4794 13.5052 73.6663 13.3298 73.8121 13.1064C73.9579 12.8831 74.065 12.6234 74.1334 12.3271C74.2063 12.0309 74.2428 11.7165 74.2428 11.3838V11.2266C74.2428 10.8984 74.2063 10.5885 74.1334 10.2969C74.065 10.0007 73.9557 9.73861 73.8053 9.51074C73.6594 9.28288 73.4726 9.10514 73.2447 8.97754C73.0214 8.84538 72.7548 8.7793 72.4449 8.7793C72.135 8.7793 71.8661 8.84538 71.6383 8.97754C71.415 9.10514 71.2304 9.28288 71.0846 9.51074C70.9387 9.73861 70.8316 10.0007 70.7633 10.2969C70.6949 10.5885 70.6607 10.8984 70.6607 11.2266ZM81.7666 13.0039L83.9678 7.60352H85.3965L82.3271 15H81.2061L78.1436 7.60352H79.5723L81.7666 13.0039ZM79.1484 7.60352V15H77.501V7.60352H79.1484ZM84.3848 15V7.60352H86.0391V15H84.3848ZM94.2234 8.7793C93.9682 8.7793 93.7335 8.83398 93.5193 8.94336C93.3097 9.04818 93.1411 9.19629 93.0135 9.3877C92.8904 9.57454 92.8289 9.79557 92.8289 10.0508H91.2703C91.2703 9.56771 91.4047 9.13249 91.6736 8.74512C91.9471 8.35319 92.3071 8.04329 92.7537 7.81543C93.2003 7.58301 93.6902 7.4668 94.2234 7.4668C94.7658 7.4668 95.2443 7.56478 95.659 7.76074C96.0737 7.95215 96.4223 8.21875 96.7049 8.56055C96.9874 8.90234 97.1993 9.29883 97.3406 9.75C97.4865 10.1966 97.5594 10.6751 97.5594 11.1855V11.4248C97.5594 11.9352 97.4865 12.4137 97.3406 12.8604C97.1948 13.307 96.9806 13.7035 96.698 14.0498C96.4155 14.3916 96.0669 14.6605 95.6521 14.8564C95.242 15.0479 94.768 15.1436 94.2303 15.1436C93.6561 15.1436 93.1456 15.0251 92.699 14.7881C92.2524 14.5511 91.9015 14.2253 91.6463 13.8105C91.3956 13.3913 91.2703 12.9059 91.2703 12.3545H92.8289C92.8289 12.6325 92.8881 12.8831 93.0066 13.1064C93.1251 13.3298 93.2892 13.5075 93.4988 13.6396C93.7085 13.7673 93.9523 13.8311 94.2303 13.8311C94.5356 13.8311 94.7954 13.7627 95.0096 13.626C95.2238 13.4893 95.3969 13.307 95.5291 13.0791C95.6613 12.8512 95.757 12.5938 95.8162 12.3066C95.8755 12.015 95.9051 11.721 95.9051 11.4248V11.1855C95.9051 10.8802 95.8755 10.584 95.8162 10.2969C95.757 10.0098 95.6613 9.75228 95.5291 9.52441C95.4015 9.29655 95.2283 9.11654 95.0096 8.98438C94.7954 8.84766 94.5333 8.7793 94.2234 8.7793ZM96.534 10.6934V11.8076H93.533V10.6934H96.534ZM102.048 7.60352V15H100.394V7.60352H102.048ZM104.475 7.60352V8.90234H98.008V7.60352H104.475ZM107.378 12.5938L110.283 7.60352H111.93V15H110.283V10.0029L107.378 15H105.73V7.60352H107.378V12.5938ZM113.828 7.60352H115.476V13.6875H117.82V7.60352H119.481V13.6875H121.819V7.60352H123.467V15H113.828V7.60352ZM132.526 11.835H130.161L130.147 10.6729H132.089C132.408 10.6729 132.67 10.641 132.875 10.5771C133.084 10.5133 133.239 10.4176 133.34 10.29C133.44 10.1579 133.49 9.99837 133.49 9.81152C133.49 9.65658 133.46 9.52214 133.401 9.4082C133.342 9.28971 133.251 9.19401 133.128 9.12109C133.009 9.04362 132.859 8.98893 132.677 8.95703C132.499 8.92057 132.291 8.90234 132.054 8.90234H130.708V15H129.06V7.60352H132.054C132.528 7.60352 132.955 7.64453 133.333 7.72656C133.716 7.80859 134.041 7.93392 134.31 8.10254C134.579 8.27116 134.784 8.48535 134.926 8.74512C135.071 9.00033 135.144 9.30111 135.144 9.64746C135.144 9.87533 135.094 10.0895 134.994 10.29C134.898 10.4906 134.755 10.6683 134.563 10.8232C134.372 10.9782 134.137 11.1058 133.859 11.2061C133.581 11.3018 133.262 11.361 132.902 11.3838L132.526 11.835ZM132.526 15H129.682L130.339 13.7012H132.526C132.818 13.7012 133.059 13.6647 133.251 13.5918C133.442 13.5189 133.583 13.4141 133.675 13.2773C133.77 13.1361 133.818 12.9697 133.818 12.7783C133.818 12.5824 133.773 12.4137 133.681 12.2725C133.59 12.1312 133.449 12.0241 133.258 11.9512C133.071 11.8737 132.827 11.835 132.526 11.835H130.646L130.66 10.6729H132.895L133.367 11.124C133.836 11.1559 134.226 11.2562 134.536 11.4248C134.846 11.5934 135.078 11.8053 135.233 12.0605C135.388 12.3158 135.466 12.5938 135.466 12.8945C135.466 13.2409 135.4 13.5462 135.267 13.8105C135.14 14.0749 134.948 14.2959 134.693 14.4736C134.443 14.6468 134.135 14.779 133.77 14.8701C133.406 14.9567 132.991 15 132.526 15ZM141.157 13.5166V9.98926C141.157 9.72493 141.11 9.49707 141.014 9.30566C140.918 9.11426 140.772 8.96615 140.576 8.86133C140.385 8.75651 140.143 8.7041 139.852 8.7041C139.583 8.7041 139.35 8.74967 139.154 8.84082C138.959 8.93197 138.806 9.05501 138.696 9.20996C138.587 9.36491 138.532 9.54036 138.532 9.73633H136.892C136.892 9.44466 136.962 9.16211 137.104 8.88867C137.245 8.61523 137.45 8.37142 137.719 8.15723C137.988 7.94303 138.309 7.77441 138.683 7.65137C139.057 7.52832 139.476 7.4668 139.941 7.4668C140.497 7.4668 140.989 7.56022 141.417 7.74707C141.85 7.93392 142.19 8.21647 142.436 8.59473C142.686 8.96842 142.812 9.43783 142.812 10.0029V13.291C142.812 13.6283 142.835 13.9313 142.88 14.2002C142.93 14.4645 143.001 14.6947 143.092 14.8906V15H141.404C141.326 14.8223 141.265 14.5967 141.219 14.3232C141.178 14.0452 141.157 13.7764 141.157 13.5166ZM141.397 10.502L141.41 11.5205H140.228C139.922 11.5205 139.654 11.5501 139.421 11.6094C139.189 11.6641 138.995 11.7461 138.84 11.8555C138.685 11.9648 138.569 12.097 138.491 12.252C138.414 12.4069 138.375 12.5824 138.375 12.7783C138.375 12.9743 138.421 13.1543 138.512 13.3184C138.603 13.4779 138.735 13.6032 138.908 13.6943C139.086 13.7855 139.3 13.8311 139.551 13.8311C139.888 13.8311 140.182 13.7627 140.433 13.626C140.688 13.4847 140.889 13.3138 141.034 13.1133C141.18 12.9082 141.258 12.7145 141.267 12.5322L141.8 13.2637C141.745 13.4505 141.652 13.651 141.52 13.8652C141.388 14.0794 141.214 14.2845 141 14.4805C140.791 14.6719 140.538 14.8291 140.241 14.9521C139.95 15.0752 139.613 15.1367 139.23 15.1367C138.747 15.1367 138.316 15.041 137.938 14.8496C137.559 14.6536 137.263 14.3916 137.049 14.0635C136.835 13.7308 136.728 13.3548 136.728 12.9355C136.728 12.5436 136.801 12.1973 136.946 11.8965C137.097 11.5911 137.316 11.3359 137.603 11.1309C137.894 10.9258 138.25 10.7708 138.669 10.666C139.088 10.5566 139.567 10.502 140.105 10.502H141.397ZM146.412 7.60352V15H144.764V7.60352H146.412ZM151.238 7.60352L147.909 12.0537H146.029L145.81 10.5635H147.184L149.18 7.60352H151.238ZM149.31 15L147.082 11.7734L148.38 10.8369L151.477 15H149.31ZM155.904 7.60352V15H154.25V7.60352H155.904ZM158.331 7.60352V8.90234H151.864V7.60352H158.331ZM161.234 12.5938L164.139 7.60352H165.787V15H164.139V10.0029L161.234 15H159.586V7.60352H161.234V12.5938Z" fill="#242424"/>
<rect x="0.5" y="26.5" width="342" height="49" rx="15.5" fill="white"/>
<rect x="0.5" y="26.5" width="342" height="49" rx="15.5" stroke="#EDEDED"/>
<path d="M14.6729 51.4014H15.5752C16.0173 51.4014 16.3818 51.3285 16.6689 51.1826C16.9606 51.0322 17.1771 50.8294 17.3184 50.5742C17.4642 50.3145 17.5371 50.0228 17.5371 49.6992C17.5371 49.3164 17.4733 48.9951 17.3457 48.7354C17.2181 48.4756 17.0267 48.2796 16.7715 48.1475C16.5163 48.0153 16.1927 47.9492 15.8008 47.9492C15.4453 47.9492 15.1309 48.0199 14.8574 48.1611C14.5885 48.2979 14.3766 48.4938 14.2217 48.749C14.0713 49.0042 13.9961 49.305 13.9961 49.6514H12.7314C12.7314 49.1455 12.859 48.6852 13.1143 48.2705C13.3695 47.8558 13.7272 47.5254 14.1875 47.2793C14.6523 47.0332 15.1901 46.9102 15.8008 46.9102C16.4023 46.9102 16.9287 47.0173 17.3799 47.2314C17.8311 47.4411 18.182 47.7555 18.4326 48.1748C18.6833 48.5895 18.8086 49.1068 18.8086 49.7266C18.8086 49.9772 18.7493 50.2461 18.6309 50.5332C18.5169 50.8158 18.3369 51.0801 18.0908 51.3262C17.8493 51.5723 17.5348 51.7751 17.1475 51.9346C16.7601 52.0895 16.2952 52.167 15.7529 52.167H14.6729V51.4014ZM14.6729 52.4404V51.6816H15.7529C16.3864 51.6816 16.9105 51.7568 17.3252 51.9072C17.7399 52.0576 18.0658 52.2581 18.3027 52.5088C18.5443 52.7594 18.7129 53.0352 18.8086 53.3359C18.9089 53.6322 18.959 53.9284 18.959 54.2246C18.959 54.6895 18.8792 55.1019 18.7197 55.4619C18.5648 55.8219 18.3438 56.1273 18.0566 56.3779C17.7741 56.6286 17.4414 56.8177 17.0586 56.9453C16.6758 57.0729 16.2588 57.1367 15.8076 57.1367C15.3747 57.1367 14.9668 57.0752 14.584 56.9521C14.2057 56.8291 13.8708 56.6514 13.5791 56.4189C13.2874 56.182 13.0596 55.8926 12.8955 55.5508C12.7314 55.2044 12.6494 54.8102 12.6494 54.3682H13.9141C13.9141 54.7145 13.9893 55.0176 14.1396 55.2773C14.2946 55.5371 14.5133 55.7399 14.7959 55.8857C15.083 56.027 15.4202 56.0977 15.8076 56.0977C16.195 56.0977 16.5277 56.0316 16.8057 55.8994C17.0882 55.7627 17.3047 55.5576 17.4551 55.2842C17.61 55.0107 17.6875 54.6667 17.6875 54.252C17.6875 53.8372 17.6009 53.4977 17.4277 53.2334C17.2546 52.9645 17.0085 52.7663 16.6895 52.6387C16.375 52.5065 16.0036 52.4404 15.5752 52.4404H14.6729ZM27.2002 51.2305V52.748C27.2002 53.5638 27.1273 54.252 26.9814 54.8125C26.8356 55.373 26.626 55.8242 26.3525 56.166C26.0791 56.5078 25.7487 56.7562 25.3613 56.9111C24.9785 57.0615 24.5456 57.1367 24.0625 57.1367C23.6797 57.1367 23.3265 57.0889 23.0029 56.9932C22.6794 56.8975 22.3877 56.7448 22.1279 56.5352C21.8727 56.321 21.654 56.043 21.4717 55.7012C21.2894 55.3594 21.1504 54.9447 21.0547 54.457C20.959 53.9694 20.9111 53.3997 20.9111 52.748V51.2305C20.9111 50.4147 20.984 49.7311 21.1299 49.1797C21.2803 48.6283 21.4922 48.1862 21.7656 47.8535C22.0391 47.5163 22.3672 47.2747 22.75 47.1289C23.1374 46.9831 23.5703 46.9102 24.0488 46.9102C24.4362 46.9102 24.7917 46.958 25.1152 47.0537C25.4434 47.1449 25.735 47.293 25.9902 47.498C26.2454 47.6986 26.4619 47.9674 26.6396 48.3047C26.8219 48.6374 26.9609 49.0452 27.0566 49.5283C27.1523 50.0114 27.2002 50.5788 27.2002 51.2305ZM25.9287 52.9531V51.0186C25.9287 50.5719 25.9014 50.18 25.8467 49.8428C25.7965 49.501 25.7214 49.2093 25.6211 48.9678C25.5208 48.7262 25.3932 48.5303 25.2383 48.3799C25.0879 48.2295 24.9124 48.1201 24.7119 48.0518C24.516 47.9788 24.2949 47.9424 24.0488 47.9424C23.748 47.9424 23.4814 47.9993 23.249 48.1133C23.0166 48.2227 22.8206 48.3981 22.6611 48.6396C22.5062 48.8812 22.3877 49.1979 22.3057 49.5898C22.2236 49.9818 22.1826 50.458 22.1826 51.0186V52.9531C22.1826 53.3997 22.2077 53.7939 22.2578 54.1357C22.3125 54.4775 22.3923 54.7738 22.4971 55.0244C22.6019 55.2705 22.7295 55.4733 22.8799 55.6328C23.0303 55.7923 23.2035 55.9108 23.3994 55.9883C23.5999 56.0612 23.821 56.0977 24.0625 56.0977C24.3724 56.0977 24.6436 56.0384 24.876 55.9199C25.1084 55.8014 25.3021 55.6169 25.457 55.3662C25.6165 55.111 25.735 54.7852 25.8125 54.3887C25.89 53.9876 25.9287 53.5091 25.9287 52.9531ZM34.3105 49.6035V57H33.0459V49.6035H34.3105ZM39.1641 49.6035L35.6572 53.8418H33.8867L33.6953 52.7344H35.1445L37.626 49.6035H39.1641ZM37.8037 57L35.083 53.6504L35.8965 52.7344L39.4102 57H37.8037ZM42.8389 56.2344L44.8965 49.6035H46.25L43.2832 58.1416C43.2148 58.3239 43.1237 58.5199 43.0098 58.7295C42.9004 58.9437 42.7591 59.1465 42.5859 59.3379C42.4128 59.5293 42.2031 59.6842 41.957 59.8027C41.7155 59.9258 41.4261 59.9873 41.0889 59.9873C40.9886 59.9873 40.861 59.9736 40.7061 59.9463C40.5511 59.9189 40.4417 59.8962 40.3779 59.8779L40.3711 58.8525C40.4076 58.8571 40.4645 58.8617 40.542 58.8662C40.624 58.8753 40.681 58.8799 40.7129 58.8799C41 58.8799 41.2438 58.8411 41.4443 58.7637C41.6449 58.6908 41.8135 58.5654 41.9502 58.3877C42.0915 58.2145 42.2122 57.9753 42.3125 57.6699L42.8389 56.2344ZM41.3281 49.6035L43.249 55.3457L43.5771 56.6787L42.668 57.1436L39.9473 49.6035H41.3281ZM52.6592 52.8096V53.835H48.749V52.8096H52.6592ZM49.0156 49.6035V57H47.751V49.6035H49.0156ZM53.6846 49.6035V57H52.4131V49.6035H53.6846Z" fill="#9A9A9A"/>
<path d="M321 53.0833L325.167 48.9166H316.833L321 53.0833Z" fill="#242424"/>
</svg>
