<svg width="343" height="76" viewBox="0 0 343 76" fill="none" xmlns="http://www.w3.org/2000/svg">
<path d="M2.70703 12.2041L7.12305 5.04688H8.83887V15H7.12305V7.83594L2.70703 15H0.998047V5.04688H2.70703V12.2041ZM13.8539 13.8242C14.1228 13.8242 14.3643 13.7718 14.5785 13.667C14.7973 13.5576 14.9727 13.4072 15.1049 13.2158C15.2416 13.0244 15.3168 12.8034 15.3305 12.5527H16.8822C16.8731 13.0312 16.7318 13.4665 16.4584 13.8584C16.185 14.2503 15.8227 14.5625 15.3715 14.7949C14.9203 15.0228 14.4213 15.1367 13.8744 15.1367C13.3093 15.1367 12.8171 15.041 12.3979 14.8496C11.9786 14.6536 11.6299 14.3848 11.352 14.043C11.074 13.7012 10.8643 13.307 10.723 12.8604C10.5863 12.4137 10.518 11.9352 10.518 11.4248V11.1855C10.518 10.6751 10.5863 10.1966 10.723 9.75C10.8643 9.29883 11.074 8.90234 11.352 8.56055C11.6299 8.21875 11.9786 7.95215 12.3979 7.76074C12.8171 7.56478 13.307 7.4668 13.8676 7.4668C14.46 7.4668 14.9796 7.58529 15.4262 7.82227C15.8728 8.05469 16.2237 8.38053 16.4789 8.7998C16.7387 9.21452 16.8731 9.69759 16.8822 10.249H15.3305C15.3168 9.97559 15.2484 9.72949 15.1254 9.51074C15.0069 9.28743 14.8383 9.1097 14.6195 8.97754C14.4053 8.84538 14.1479 8.7793 13.8471 8.7793C13.5144 8.7793 13.2387 8.84766 13.0199 8.98438C12.8012 9.11654 12.6303 9.29883 12.5072 9.53125C12.3842 9.75911 12.2953 10.0166 12.2406 10.3037C12.1905 10.5863 12.1654 10.8802 12.1654 11.1855V11.4248C12.1654 11.7301 12.1905 12.0264 12.2406 12.3135C12.2908 12.6006 12.3773 12.8581 12.5004 13.0859C12.628 13.3092 12.8012 13.4893 13.0199 13.626C13.2387 13.7581 13.5167 13.8242 13.8539 13.8242ZM22.6424 13.0039L24.8436 7.60352H26.2723L23.2029 15H22.0818L19.0193 7.60352H20.448L22.6424 13.0039ZM20.0242 7.60352V15H18.3768V7.60352H20.0242ZM25.2605 15V7.60352H26.9148V15H25.2605ZM30.5627 12.5938L33.468 7.60352H35.1154V15H33.468V10.0029L30.5627 15H28.9152V7.60352H30.5627V12.5938ZM42.0104 10.6934V11.9922H38.1822V10.6934H42.0104ZM38.6607 7.60352V15H37.0133V7.60352H38.6607ZM43.1998 7.60352V15H41.5523V7.60352H43.1998ZM49.9785 7.60352V8.91602H46.752V15H45.1045V7.60352H49.9785ZM52.7377 12.5938L55.643 7.60352H57.2904V15H55.643V10.0029L52.7377 15H51.0902V7.60352H52.7377V12.5938ZM62.1961 11.4658H60.7742V10.6318H61.9227C62.2143 10.6318 62.4467 10.5931 62.6199 10.5156C62.7977 10.4382 62.923 10.3311 62.9959 10.1943C63.0734 10.0531 63.1121 9.889 63.1121 9.70215C63.1121 9.53809 63.0734 9.38314 62.9959 9.2373C62.923 9.08691 62.7977 8.96387 62.6199 8.86816C62.4422 8.77246 62.2007 8.72461 61.8953 8.72461C61.6447 8.72461 61.4191 8.76562 61.2186 8.84766C61.0226 8.92969 60.8676 9.04362 60.7537 9.18945C60.6398 9.33529 60.5828 9.50391 60.5828 9.69531H58.9354C58.9354 9.23503 59.0652 8.83854 59.325 8.50586C59.5893 8.17318 59.9425 7.91797 60.3846 7.74023C60.8266 7.5625 61.312 7.47363 61.8406 7.47363C62.2918 7.47363 62.6974 7.52148 63.0574 7.61719C63.4174 7.70833 63.7228 7.84505 63.9734 8.02734C64.2286 8.20508 64.4223 8.42839 64.5545 8.69727C64.6912 8.96159 64.7596 9.26921 64.7596 9.62012C64.7596 9.87077 64.7003 10.1077 64.5818 10.3311C64.4633 10.5544 64.2924 10.7526 64.0691 10.9258C63.8458 11.0944 63.5747 11.2266 63.2557 11.3223C62.9412 11.418 62.588 11.4658 62.1961 11.4658ZM60.7742 10.9873H62.1961C62.6336 10.9873 63.021 11.0306 63.3582 11.1172C63.6954 11.1992 63.978 11.3223 64.2059 11.4863C64.4337 11.6504 64.6046 11.8532 64.7186 12.0947C64.837 12.3317 64.8963 12.6051 64.8963 12.915C64.8963 13.2614 64.8211 13.5736 64.6707 13.8516C64.5249 14.125 64.3152 14.3574 64.0418 14.5488C63.7729 14.7402 63.4516 14.8861 63.0779 14.9863C62.7042 15.0866 62.2918 15.1367 61.8406 15.1367C61.3484 15.1367 60.8699 15.0547 60.4051 14.8906C59.9448 14.7266 59.5643 14.4736 59.2635 14.1318C58.9673 13.7855 58.8191 13.3457 58.8191 12.8125H60.4666C60.4666 12.9993 60.5236 13.1748 60.6375 13.3389C60.7514 13.5029 60.9155 13.6374 61.1297 13.7422C61.3439 13.8424 61.6014 13.8926 61.9021 13.8926C62.212 13.8926 62.465 13.8447 62.6609 13.749C62.8569 13.6488 63.0027 13.5189 63.0984 13.3594C63.1941 13.1953 63.242 13.0221 63.242 12.8398C63.242 12.5938 63.1941 12.3955 63.0984 12.2451C63.0027 12.0947 62.8569 11.9854 62.6609 11.917C62.465 11.8441 62.2189 11.8076 61.9227 11.8076H60.7742V10.9873Z" fill="#242424"/>
<rect x="0.5" y="26.5" width="342" height="49" rx="15.5" fill="white"/>
<rect x="0.5" y="26.5" width="342" height="49" rx="15.5" stroke="#EDEDED"/>
<path d="M14.5293 54.7168L19.4307 47.0469H20.75V57H19.4307V49.3232L14.5293 57H13.2168V47.0469H14.5293V54.7168ZM26.168 56.0977C26.4688 56.0977 26.7467 56.0361 27.002 55.9131C27.2572 55.79 27.4668 55.6214 27.6309 55.4072C27.7949 55.1885 27.8883 54.9401 27.9111 54.6621H29.1143C29.0915 55.0996 28.9434 55.5075 28.6699 55.8857C28.401 56.2594 28.0479 56.5625 27.6104 56.7949C27.1729 57.0228 26.6921 57.1367 26.168 57.1367C25.612 57.1367 25.1266 57.0387 24.7119 56.8428C24.3018 56.6468 23.96 56.3779 23.6865 56.0361C23.4176 55.6943 23.2148 55.3024 23.0781 54.8604C22.946 54.4137 22.8799 53.9421 22.8799 53.4453V53.1582C22.8799 52.6615 22.946 52.1921 23.0781 51.75C23.2148 51.3034 23.4176 50.9092 23.6865 50.5674C23.96 50.2256 24.3018 49.9567 24.7119 49.7607C25.1266 49.5648 25.612 49.4668 26.168 49.4668C26.7467 49.4668 27.2526 49.5853 27.6855 49.8223C28.1185 50.0547 28.458 50.3737 28.7041 50.7793C28.9548 51.1803 29.0915 51.6361 29.1143 52.1465H27.9111C27.8883 51.8411 27.8018 51.5654 27.6514 51.3193C27.5055 51.0732 27.305 50.8773 27.0498 50.7314C26.7992 50.5811 26.5052 50.5059 26.168 50.5059C25.7806 50.5059 25.4548 50.5833 25.1904 50.7383C24.9307 50.8887 24.7233 51.0938 24.5684 51.3535C24.418 51.6087 24.3086 51.8936 24.2402 52.208C24.1764 52.5179 24.1445 52.8346 24.1445 53.1582V53.4453C24.1445 53.7689 24.1764 54.0879 24.2402 54.4023C24.304 54.7168 24.4111 55.0016 24.5615 55.2568C24.7165 55.512 24.9238 55.7171 25.1836 55.8721C25.4479 56.0225 25.776 56.0977 26.168 56.0977ZM35.0381 55.3184L37.5537 49.6035H38.7705L35.4756 57H34.6006L31.3193 49.6035H32.5361L35.0381 55.3184ZM32.167 49.6035V57H30.9023V49.6035H32.167ZM37.8682 57V49.6035H39.1396V57H37.8682ZM42.7939 54.9971L46.2051 49.6035H47.4766V57H46.2051V51.6064L42.7939 57H41.5361V49.6035H42.7939V54.9971ZM54.7744 52.8096V53.835H50.8643V52.8096H54.7744ZM51.1309 49.6035V57H49.8662V49.6035H51.1309ZM55.7998 49.6035V57H54.5283V49.6035H55.7998ZM62.8652 49.6035V50.6494H59.4473V57H58.1826V49.6035H62.8652ZM65.583 54.9971L68.9941 49.6035H70.2656V57H68.9941V51.6064L65.583 57H64.3252V49.6035H65.583V54.9971ZM75.3076 53.4658H73.9473V52.6865H75.2051C75.556 52.6865 75.834 52.6432 76.0391 52.5566C76.2441 52.4655 76.39 52.3402 76.4766 52.1807C76.5632 52.0212 76.6064 51.8343 76.6064 51.6201C76.6064 51.4287 76.5563 51.2487 76.4561 51.0801C76.3604 50.9069 76.2054 50.7679 75.9912 50.6631C75.777 50.5537 75.4899 50.499 75.1299 50.499C74.8382 50.499 74.5739 50.5514 74.3369 50.6562C74.0999 50.7565 73.9108 50.8955 73.7695 51.0732C73.6328 51.2464 73.5645 51.4424 73.5645 51.6611H72.2998C72.2998 51.21 72.4274 50.8226 72.6826 50.499C72.9424 50.1709 73.2865 49.918 73.7148 49.7402C74.1478 49.5625 74.6195 49.4736 75.1299 49.4736C75.5583 49.4736 75.9411 49.5215 76.2783 49.6172C76.6201 49.7083 76.9095 49.8451 77.1465 50.0273C77.3835 50.2051 77.5635 50.4284 77.6865 50.6973C77.8141 50.9616 77.8779 51.2692 77.8779 51.6201C77.8779 51.8708 77.8187 52.1077 77.7002 52.3311C77.5817 52.5544 77.4108 52.7526 77.1875 52.9258C76.9642 53.0944 76.693 53.2266 76.374 53.3223C76.0596 53.418 75.7041 53.4658 75.3076 53.4658ZM73.9473 52.9873H75.3076C75.7497 52.9873 76.1393 53.0306 76.4766 53.1172C76.8138 53.1992 77.0964 53.3223 77.3242 53.4863C77.5521 53.6504 77.723 53.8532 77.8369 54.0947C77.9554 54.3317 78.0146 54.6051 78.0146 54.915C78.0146 55.2614 77.944 55.5736 77.8027 55.8516C77.666 56.125 77.4701 56.3574 77.2148 56.5488C76.9596 56.7402 76.6543 56.8861 76.2988 56.9863C75.9479 57.0866 75.5583 57.1367 75.1299 57.1367C74.6514 57.1367 74.1865 57.0547 73.7354 56.8906C73.2842 56.7266 72.9128 56.4736 72.6211 56.1318C72.3294 55.7855 72.1836 55.3457 72.1836 54.8125H73.4482C73.4482 55.0358 73.5189 55.2477 73.6602 55.4482C73.8014 55.6488 73.9974 55.8105 74.248 55.9336C74.5033 56.0566 74.7972 56.1182 75.1299 56.1182C75.4854 56.1182 75.7816 56.0635 76.0186 55.9541C76.2555 55.8447 76.4333 55.6989 76.5518 55.5166C76.6748 55.3343 76.7363 55.1361 76.7363 54.9219C76.7363 54.6439 76.6816 54.4206 76.5723 54.252C76.4629 54.0833 76.2943 53.9603 76.0664 53.8828C75.8431 53.8008 75.556 53.7598 75.2051 53.7598H73.9473V52.9873Z" fill="#9A9A9A"/>
</svg>
